<svg xmlns="http://www.w3.org/2000/svg" viewBox="0 0 256 256" width="256" height="256">
  <defs>
    <radialGradient id="srBg" cx="50%" cy="50%" r="60%">
      <stop offset="0%" stop-color="#1e1b4b"/>
      <stop offset="65%" stop-color="#0b0f24"/>
      <stop offset="100%" stop-color="#03040c"/>
    </radialGradient>
  </defs>
  <rect width="256" height="256" rx="28" fill="url(#srBg)" />
  <rect x="4" y="4" width="248" height="248" rx="24" fill="none" stroke="#38bdf8" stroke-width="3" opacity="0.6"/>

  <!-- Spectral Wind / Mana Aura -->
  <path d="M 40 256 Q 30 140 70 80 Q 128 35 186 80 Q 226 140 216 256 Z" fill="#0c4a6e" opacity="0.4"/>

  <!-- Shadow Cloak & Hood -->
  <path d="M 40 256 L 76 190 L 110 180 L 128 195 L 146 180 L 180 190 L 216 256 Z" fill="#082f49"/>
  <!-- Giant Deep Hood -->
  <path d="M 80 160 C 70 80 100 40 128 36 C 156 40 186 80 176 160 C 160 175 140 180 128 180 C 116 180 96 175 80 160 Z" fill="#0c1e34" stroke="#0284c7" stroke-width="2"/>
  <!-- Abyss inside Hood -->
  <path d="M 94 150 C 88 100 110 70 128 68 C 146 70 168 100 162 150 C 150 162 136 166 128 166 C 120 166 106 162 94 150 Z" fill="#020617"/>

  <!-- Glowing Cyan Eyes in Abyss -->
  <ellipse cx="114" cy="116" rx="7" ry="2.5" fill="#38bdf8" transform="rotate(5 114 116)"/>
  <ellipse cx="142" cy="116" rx="7" ry="2.5" fill="#38bdf8" transform="rotate(-5 142 116)"/>
  <circle cx="114" cy="116" r="1.5" fill="#ffffff"/>
  <circle cx="142" cy="116" r="1.5" fill="#ffffff"/>
  <!-- Eye flare trails -->
  <path d="M 108 116 Q 84 110 72 96" fill="none" stroke="#38bdf8" stroke-width="2" stroke-linecap="round"/>
  <path d="M 148 116 Q 172 110 184 96" fill="none" stroke="#38bdf8" stroke-width="2" stroke-linecap="round"/>

  <!-- Spectral Bow across chest -->
  <path d="M 190 50 Q 210 130 190 210" fill="none" stroke="#00f0ff" stroke-width="4.5" stroke-linecap="round"/>
  <!-- Bowstring -->
  <line x1="190" y1="50" x2="190" y2="210" stroke="#e0f2fe" stroke-width="1.5" stroke-dasharray="4 2"/>
  <!-- Glowing Arrow -->
  <line x1="140" y1="130" x2="220" y2="130" stroke="#ffffff" stroke-width="2.5"/>
  <polygon points="220,130 210,125 210,135" fill="#38bdf8"/>

  <!-- Title Badge Label -->
  <rect x="36" y="214" width="184" height="28" rx="8" fill="#081e30" stroke="#38bdf8" stroke-width="1.5"/>
  <text x="128" y="233" fill="#38bdf8" font-family="sans-serif" font-size="12" font-weight="bold" text-anchor="middle" letter-spacing="1">SOMBRA ATIRADORA</text>
</svg>