<svg xmlns="http://www.w3.org/2000/svg" viewBox="0 0 96 96" width="96" height="96">
  <defs>
    <radialGradient id="portalCore" cx="50%" cy="50%" r="50%">
      <stop offset="0%" stop-color="#00f0ff" stop-opacity="1"/>
      <stop offset="45%" stop-color="#7000ff" stop-opacity="0.8"/>
      <stop offset="85%" stop-color="#180b38" stop-opacity="0.6"/>
      <stop offset="100%" stop-color="#090614" stop-opacity="0"/>
    </radialGradient>
    <linearGradient id="ringGrad" x1="0%" y1="0%" x2="100%" y2="100%">
      <stop offset="0%" stop-color="#00f0ff"/>
      <stop offset="50%" stop-color="#a855f7"/>
      <stop offset="100%" stop-color="#3b82f6"/>
    </linearGradient>
  </defs>
  <rect width="96" height="96" rx="20" fill="#0b0d19" />
  <circle cx="48" cy="48" r="38" fill="url(#portalCore)" />
  <!-- Gate arch stones -->
  <path d="M 20 72 C 16 38 32 16 48 16 C 64 16 80 38 76 72" fill="none" stroke="#252c48" stroke-width="8" stroke-linecap="round"/>
  <!-- Energy swirl rings -->
  <ellipse cx="48" cy="50" rx="28" ry="22" fill="none" stroke="url(#ringGrad)" stroke-width="3.5" transform="rotate(-15 48 50)" stroke-dasharray="12 4"/>
  <ellipse cx="48" cy="50" rx="18" ry="14" fill="none" stroke="#00f0ff" stroke-width="2.5" transform="rotate(25 48 50)"/>
  <circle cx="48" cy="50" r="7" fill="#ffffff" />
  <circle cx="48" cy="50" r="12" fill="#00f0ff" opacity="0.4" />
  <!-- Runes / Accents -->
  <polygon points="48,10 52,18 44,18" fill="#00f0ff"/>
  <polygon points="18,68 24,64 22,72" fill="#7000ff"/>
  <polygon points="78,68 72,64 74,72" fill="#7000ff"/>
</svg>